<?xml version="1.0" encoding="utf-8"?>
<!-- Generator: Adobe Illustrator 18.1.0, SVG Export Plug-In . SVG Version: 6.00 Build 0)  -->
<svg version="1.1" id="Слой_1" xmlns="http://www.w3.org/2000/svg" xmlns:xlink="http://www.w3.org/1999/xlink" x="0px" y="0px"
	 viewBox="0 16.3 160 127.3" enable-background="new 0 16.3 160 127.3" xml:space="preserve">
<g>
	<g>
		<path id="SVGID_1_" fill="#C8C8C8" d="M153.7,101.6c1.2,0,2.2-1,2.2-2.2v-58c0-1.2-1-2.2-2.2-2.2H73.4c-1.2,0-2.2,1-2.2,2.2v58
			c0,1.2,1,2.2,2.2,2.2H153.7 M153.7,103.8H73.4c-2.5,0-4.5-1.9-4.5-4.5v-58c0-2.5,1.9-4.5,4.5-4.5h80.4c2.5,0,4.5,1.9,4.5,4.5v58
			C158.2,101.7,156.3,103.8,153.7,103.8L153.7,103.8L153.7,103.8z"/>
	</g>
	<g>
		<g>
			<defs>
				<path id="SVGID_2_" d="M153.7,101.6c1.2,0,2.2-1,2.2-2.2v-58c0-1.2-1-2.2-2.2-2.2H73.4c-1.2,0-2.2,1-2.2,2.2v58
					c0,1.2,1,2.2,2.2,2.2H153.7 M153.7,103.8H73.4c-2.5,0-4.5-1.9-4.5-4.5v-58c0-2.5,1.9-4.5,4.5-4.5h80.4c2.5,0,4.5,1.9,4.5,4.5v58
					C158.2,101.7,156.3,103.8,153.7,103.8L153.7,103.8L153.7,103.8z"/>
			</defs>
			<clipPath id="SVGID_4_">
				<use xlink:href="#SVGID_2_"  overflow="visible"/>
			</clipPath>
			<g clip-path="url(#SVGID_4_)">
			</g>
		</g>
	</g>
</g>
<g>
	<g>
		<path id="SVGID_3_" fill="#C8C8C8" d="M95.7,51c1.2,0,2.2-1,2.2-2.2s-1-2.2-2.2-2.2s-2.2,1-2.2,2.2C93.5,49.9,94.5,51,95.7,51
			 M95.7,53.2c-2.5,0-4.5-1.9-4.5-4.5s1.9-4.5,4.5-4.5c2.5,0,4.5,1.9,4.5,4.5C100.2,51.1,98.2,53.2,95.7,53.2L95.7,53.2L95.7,53.2z"
			/>
	</g>
	<g>
		<g>
			<defs>
				<path id="SVGID_6_" d="M95.7,51c1.2,0,2.2-1,2.2-2.2s-1-2.2-2.2-2.2s-2.2,1-2.2,2.2C93.5,49.9,94.5,51,95.7,51 M95.7,53.2
					c-2.5,0-4.5-1.9-4.5-4.5s1.9-4.5,4.5-4.5c2.5,0,4.5,1.9,4.5,4.5C100.2,51.1,98.2,53.2,95.7,53.2L95.7,53.2L95.7,53.2z"/>
			</defs>
			<clipPath id="SVGID_8_">
				<use xlink:href="#SVGID_6_"  overflow="visible"/>
			</clipPath>
			<g clip-path="url(#SVGID_8_)">
			</g>
		</g>
	</g>
</g>
<g>
	<g>
		<path id="SVGID_5_" fill="#C8C8C8" d="M131.4,51c1.2,0,2.2-1,2.2-2.2s-1-2.2-2.2-2.2s-2.2,1-2.2,2.2C129.2,49.9,130.2,51,131.4,51
			 M131.4,53.2c-2.5,0-4.5-1.9-4.5-4.5s1.9-4.5,4.5-4.5s4.5,1.9,4.5,4.5C135.9,51.1,134,53.2,131.4,53.2L131.4,53.2L131.4,53.2z"/>
	</g>
	<g>
		<g>
			<defs>
				<path id="SVGID_10_" d="M131.4,51c1.2,0,2.2-1,2.2-2.2s-1-2.2-2.2-2.2s-2.2,1-2.2,2.2C129.2,49.9,130.2,51,131.4,51 M131.4,53.2
					c-2.5,0-4.5-1.9-4.5-4.5s1.9-4.5,4.5-4.5s4.5,1.9,4.5,4.5C135.9,51.1,134,53.2,131.4,53.2L131.4,53.2L131.4,53.2z"/>
			</defs>
			<clipPath id="SVGID_12_">
				<use xlink:href="#SVGID_10_"  overflow="visible"/>
			</clipPath>
			<g clip-path="url(#SVGID_12_)">
			</g>
		</g>
	</g>
</g>
<g>
	<g>
		<path id="SVGID_7_" fill="#C8C8C8" d="M92,45.8h2.2c0,0.1,0-0.9,0-8.9c0-10.7,8.6-19.3,19.3-19.3s19.3,8.6,19.3,19.3
			c0,8,0,9.1,0,9.1h2.2h-4.5v-9.1c0-9.4-7.7-17.1-17.1-17.1s-17.1,7.7-17.1,17.1V46L92,45.8L92,45.8"/>
	</g>
	<g>
		<g>
			<defs>
				<path id="SVGID_14_" d="M92,45.8h2.2c0,0.1,0-0.9,0-8.9c0-10.7,8.6-19.3,19.3-19.3s19.3,8.6,19.3,19.3c0,8,0,9.1,0,9.1h2.2h-4.5
					v-9.1c0-9.4-7.7-17.1-17.1-17.1s-17.1,7.7-17.1,17.1V46L92,45.8L92,45.8"/>
			</defs>
			<clipPath id="SVGID_16_">
				<use xlink:href="#SVGID_14_"  overflow="visible"/>
			</clipPath>
			<g clip-path="url(#SVGID_16_)">
			</g>
		</g>
	</g>
</g>
<g>
	<g>
		<path id="SVGID_9_" fill="#C8C8C8" d="M57,112c1.2,0,2.2-1,2.2-2.2V41.3c0-1.2-1-2.2-2.2-2.2H6.4c-1.2,0-2.2,1-2.2,2.2v68.5
			c0,1.2,1,2.2,2.2,2.2H57 M57,114.2H6.4c-2.5,0-4.5-1.9-4.5-4.5V41.3c0-2.5,1.9-4.5,4.5-4.5H57c2.5,0,4.5,1.9,4.5,4.5v68.5
			C61.5,112.1,59.5,114.2,57,114.2L57,114.2L57,114.2z"/>
	</g>
	<g>
		<g>
			<defs>
				<path id="SVGID_18_" d="M57,112c1.2,0,2.2-1,2.2-2.2V41.3c0-1.2-1-2.2-2.2-2.2H6.4c-1.2,0-2.2,1-2.2,2.2v68.5
					c0,1.2,1,2.2,2.2,2.2H57 M57,114.2H6.4c-2.5,0-4.5-1.9-4.5-4.5V41.3c0-2.5,1.9-4.5,4.5-4.5H57c2.5,0,4.5,1.9,4.5,4.5v68.5
					C61.5,112.1,59.5,114.2,57,114.2L57,114.2L57,114.2z"/>
			</defs>
			<clipPath id="SVGID_20_">
				<use xlink:href="#SVGID_18_"  overflow="visible"/>
			</clipPath>
			<g clip-path="url(#SVGID_20_)">
			</g>
		</g>
	</g>
</g>
<g>
	<g>
		<path id="SVGID_11_" fill="#C8C8C8" d="M153.7,138.8c1.2,0,2.2-1,2.2-2.2v-20.8c0-1.2-1-2.2-2.2-2.2h-50.6c-1.2,0-2.2,1-2.2,2.2
			v20.8c0,1.2,1,2.2,2.2,2.2H153.7 M153.7,141h-50.6c-2.5,0-4.5-1.9-4.5-4.5v-20.8c0-2.5,1.9-4.5,4.5-4.5h50.6
			c2.5,0,4.5,1.9,4.5,4.5v20.8C158.2,138.9,156.3,141,153.7,141L153.7,141L153.7,141z"/>
	</g>
	<g>
		<g>
			<defs>
				<path id="SVGID_21_" d="M153.7,138.8c1.2,0,2.2-1,2.2-2.2v-20.8c0-1.2-1-2.2-2.2-2.2h-50.6c-1.2,0-2.2,1-2.2,2.2v20.8
					c0,1.2,1,2.2,2.2,2.2H153.7 M153.7,141h-50.6c-2.5,0-4.5-1.9-4.5-4.5v-20.8c0-2.5,1.9-4.5,4.5-4.5h50.6c2.5,0,4.5,1.9,4.5,4.5
					v20.8C158.2,138.9,156.3,141,153.7,141L153.7,141L153.7,141z"/>
			</defs>
			<clipPath id="SVGID_22_">
				<use xlink:href="#SVGID_21_"  overflow="visible"/>
			</clipPath>
			<g clip-path="url(#SVGID_22_)">
			</g>
		</g>
	</g>
</g>
<g>
	<g>
		<path id="SVGID_13_" fill="#C8C8C8" d="M9.4,135.8v2.2H1.9v-2.2H9.4 M4.2,138H1.9v-7.4h2.2L4.2,138 M1.9,132.8v-2.2h7.4v2.2H1.9
			 M4.2,138H1.9l0,0H4.2L4.2,138L4.2,138z M1.9,138v-2.2V138L1.9,138L1.9,138z M1.9,132.8v-2.2h2.2H1.9V132.8L1.9,132.8L1.9,132.8z"
			/>
	</g>
	<g>
		<g>
			<defs>
				<path id="SVGID_23_" d="M9.4,135.8v2.2H1.9v-2.2H9.4 M4.2,138H1.9v-7.4h2.2L4.2,138 M1.9,132.8v-2.2h7.4v2.2H1.9 M4.2,138H1.9
					l0,0H4.2L4.2,138L4.2,138z M1.9,138v-2.2V138L1.9,138L1.9,138z M1.9,132.8v-2.2h2.2H1.9V132.8L1.9,132.8L1.9,132.8z"/>
			</defs>
			<clipPath id="SVGID_24_">
				<use xlink:href="#SVGID_23_"  overflow="visible"/>
			</clipPath>
			<g clip-path="url(#SVGID_24_)">
			</g>
		</g>
	</g>
</g>
<g>
	<g>
		<path id="SVGID_15_" fill="#C8C8C8" d="M11.6,130.6H9.4v-6h2.2L11.6,130.6 M9.4,126.9v-2.2h29.8v2.2H9.4 M9.4,126.9v-2.2h2.2H9.4
			V126.9L9.4,126.9L9.4,126.9z"/>
	</g>
	<g>
		<g>
			<defs>
				<path id="SVGID_25_" d="M11.6,130.6H9.4v-6h2.2L11.6,130.6 M9.4,126.9v-2.2h29.8v2.2H9.4 M9.4,126.9v-2.2h2.2H9.4V126.9
					L9.4,126.9L9.4,126.9z"/>
			</defs>
			<clipPath id="SVGID_26_">
				<use xlink:href="#SVGID_25_"  overflow="visible"/>
			</clipPath>
			<g clip-path="url(#SVGID_26_)">
			</g>
		</g>
	</g>
</g>
<g>
	<g>
		<path id="SVGID_17_" fill="#C8C8C8" d="M72,137.9l-1.6,1.6l-1.5-1.5l1.6-1.6L72,137.9 M71.1,138h-2.2v-7.4h2.2V138 M71.1,138h-2.2
			l0,0H71.1L71.1,138L71.1,138z M68.9,138l1.6-1.6L68.9,138L68.9,138L68.9,138z"/>
	</g>
	<g>
		<g>
			<defs>
				<path id="SVGID_27_" d="M72,137.9l-1.6,1.6l-1.5-1.5l1.6-1.6L72,137.9 M71.1,138h-2.2v-7.4h2.2V138 M71.1,138h-2.2l0,0H71.1
					L71.1,138L71.1,138z M68.9,138l1.6-1.6L68.9,138L68.9,138L68.9,138z"/>
			</defs>
			<clipPath id="SVGID_28_">
				<use xlink:href="#SVGID_27_"  overflow="visible"/>
			</clipPath>
			<g clip-path="url(#SVGID_28_)">
			</g>
		</g>
	</g>
</g>
<g>
	<g>
		<path id="SVGID_19_" fill="#C8C8C8" d="M77.8,137.3c4.6,0,7.9-1.6,9.8-2.8c-2.1-1.3-5.7-3.1-9.8-3.1H11.6v6L77.8,137.3
			 M77.8,139.5H9.4v-10.4h68.5c7.6,0,13.4,5.2,13.4,5.2S86.6,139.5,77.8,139.5L77.8,139.5L77.8,139.5z"/>
	</g>
</g>
</svg>
