<?xml version="1.0" encoding="utf-8"?>
<!-- Generator: Adobe Illustrator 18.1.0, SVG Export Plug-In . SVG Version: 6.00 Build 0)  -->
<svg version="1.1" id="Слой_1" xmlns="http://www.w3.org/2000/svg" xmlns:xlink="http://www.w3.org/1999/xlink" x="0px" y="0px"
	 viewBox="0 34.3 160 91.7" enable-background="new 0 34.3 160 91.7" xml:space="preserve">
<path fill="#C8C8C8" d="M154.2,122.2c1.1,0,2.1-1,2.1-2.1v-3.4H3.6v3.4c0,1.1,1,2.1,2.1,2.1H154.2 M154.2,124.2H5.6
	c-2.3,0-4.1-1.8-4.1-4.1v-5.5h156.8v5.5C158.3,122.3,156.6,124.2,154.2,124.2L154.2,124.2L154.2,124.2z"/>
<path fill="#C8C8C8" d="M17.3,114.6h-2.1V40.3c0-2.3,1.8-4.1,4.1-4.1h121.1c2.3,0,4.1,1.8,4.1,4.1v74.3h-2.1V40.3
	c0-1.1-1-2.1-2.1-2.1H19.4c-1.1,0-2.1,1-2.1,2.1L17.3,114.6"/>
<path fill="#C8C8C8" d="M24.9,46.5c0.4,0,0.7-0.3,0.7-0.7c0-0.4-0.3-0.7-0.7-0.7c-0.4,0-0.7,0.3-0.7,0.7
	C24.2,46.1,24.6,46.5,24.9,46.5 M24.9,48.6c-1.5,0-2.8-1.2-2.8-2.8s1.2-2.8,2.8-2.8s2.8,1.2,2.8,2.8C27.7,47.3,26.4,48.6,24.9,48.6
	L24.9,48.6L24.9,48.6z"/>
<path fill="#C8C8C8" d="M31.8,46.5c0.4,0,0.7-0.3,0.7-0.7c0-0.4-0.3-0.7-0.7-0.7c-0.4,0-0.7,0.3-0.7,0.7
	C31.1,46.1,31.5,46.5,31.8,46.5 M31.8,48.6c-1.5,0-2.8-1.2-2.8-2.8s1.2-2.8,2.8-2.8c1.5,0,2.8,1.2,2.8,2.8
	C34.5,47.3,33.3,48.6,31.8,48.6L31.8,48.6L31.8,48.6z"/>
<path fill="#C8C8C8" d="M38.7,46.5c0.4,0,0.7-0.3,0.7-0.7c0-0.4-0.3-0.7-0.7-0.7c-0.4,0-0.7,0.3-0.7,0.7
	C38,46.1,38.4,46.5,38.7,46.5 M38.7,48.6c-1.5,0-2.8-1.2-2.8-2.8s1.2-2.8,2.8-2.8s2.8,1.2,2.8,2.8C41.4,47.3,40.2,48.6,38.7,48.6
	L38.7,48.6L38.7,48.6z"/>
<polyline fill="#C8C8C8" points="129.5,43.7 129.5,41.7 139.1,41.7 139.1,43.7 129.5,43.7 "/>
<polyline fill="#C8C8C8" points="129.5,46.5 129.5,44.4 139.1,44.4 139.1,46.5 129.5,46.5 "/>
<polyline fill="#C8C8C8" points="129.5,49.3 129.5,47.2 139.1,47.2 139.1,49.3 129.5,49.3 "/>
<polyline fill="#C8C8C8" points="59.3,68.5 59.3,66.4 100.6,66.4 100.6,68.5 59.3,68.5 "/>
<polyline fill="#C8C8C8" points="45.5,82.3 45.5,80.2 114.3,80.2 114.3,82.3 45.5,82.3 "/>
<polyline fill="#C8C8C8" points="45.5,89.1 45.5,87.1 114.3,87.1 114.3,89.1 45.5,89.1 "/>
</svg>
