<?xml version="1.0" encoding="utf-8"?>
<!-- Generator: Adobe Illustrator 18.1.0, SVG Export Plug-In . SVG Version: 6.00 Build 0)  -->
<svg version="1.1" id="Слой_1" xmlns="http://www.w3.org/2000/svg" xmlns:xlink="http://www.w3.org/1999/xlink" x="0px" y="0px"
	 viewBox="0 18 160 124" enable-background="new 0 18 160 124" xml:space="preserve">
<path fill="#C8C8C8" d="M65,122.5c1.2,0,2.3-1.1,2.3-2.3V91.7c0-1.2-1.1-2.3-2.3-2.3H6.5c-1.2,0-2.3,1.1-2.3,2.3v28.5
	c0,1.2,1.1,2.3,2.3,2.3H65 M65,124.7H6.5c-2.6,0-4.5-2-4.5-4.5V91.7c0-2.6,2-4.5,4.5-4.5H65c2.6,0,4.5,2,4.5,4.5v28.5
	C69.5,122.8,67.4,124.7,65,124.7L65,124.7L65,124.7z"/>
<path fill="#C8C8C8" d="M65,69.9c1.2,0,2.3-1.1,2.3-2.3V39.2c0-1.2-1.1-2.3-2.3-2.3H6.5c-1.2,0-2.3,1.1-2.3,2.3v28.5
	c0,1.2,1.1,2.3,2.3,2.3H65 M65,72.2H6.5c-2.6,0-4.5-2-4.5-4.5V39.2c0-2.6,2-4.5,4.5-4.5H65c2.6,0,4.5,2,4.5,4.5v28.5
	C69.5,70.2,67.4,72.2,65,72.2L65,72.2L65,72.2z"/>
<path fill="#C8C8C8" d="M153.5,122.5c1.2,0,2.3-1.1,2.3-2.3V91.7c0-1.2-1.1-2.3-2.3-2.3H95c-1.2,0-2.3,1.1-2.3,2.3v28.5
	c0,1.2,1.1,2.3,2.3,2.3H153.5 M153.5,124.7H95c-2.6,0-4.5-2-4.5-4.5V91.7c0-2.6,2-4.5,4.5-4.5h58.5c2.6,0,4.5,2,4.5,4.5v28.5
	C158,122.8,155.9,124.7,153.5,124.7L153.5,124.7L153.5,124.7z"/>
<path fill="#C8C8C8" d="M153.5,69.9c1.2,0,2.3-1.1,2.3-2.3V39.2c0-1.2-1.1-2.3-2.3-2.3H95c-1.2,0-2.3,1.1-2.3,2.3v28.5
	c0,1.2,1.1,2.3,2.3,2.3H153.5 M153.5,72.2H95c-2.6,0-4.5-2-4.5-4.5V39.2c0-2.6,2-4.5,4.5-4.5h58.5c2.6,0,4.5,2,4.5,4.5v28.5
	C158,70.2,155.9,72.2,153.5,72.2L153.5,72.2L153.5,72.2z"/>
<polyline fill="#C8C8C8" points="71.6,72.9 86.6,88 88.3,86.5 73.2,71.4 "/>
<polyline fill="#C8C8C8" points="86.6,71.4 71.6,86.5 73.2,88 88.3,72.9 "/>
<path fill="#C8C8C8" d="M137.5,73.8l2.3-0.2c0.2,2,0.3,3.9,0.3,6c0,2.1-0.2,4.1-0.3,6l-2.3-0.2c0.2-2,0.3-3.9,0.3-5.9
	C137.8,77.7,137.6,75.8,137.5,73.8 M22.5,85.6l-2.3,0.2c-0.2-2-0.3-3.9-0.3-6c0-2.1,0.2-4.1,0.3-6l2.3,0.2c-0.2,2-0.3,3.9-0.3,5.9
	C22.2,81.7,22.2,83.6,22.5,85.6 M45.3,33.5L44,31.7c10.1-7.5,22.5-12,36-12s26,4.5,36,12l-1.4,1.8C104.6,26,92.6,21.9,80,21.9
	S55.4,26,45.3,33.5 M114.7,125.9l1.4,1.8c-10.1,7.5-22.5,12-36,12s-26-4.5-36-12l1.4-1.8c10.1,7.5,22.1,11.6,34.7,11.6
	C92.6,137.5,104.6,133.4,114.7,125.9"/>
<path fill="#C8C8C8" d="M24.5,59.4c2.9,0,5.3-2.4,5.3-5.3s-2.4-5.3-5.3-5.3s-5.3,2.4-5.3,5.3C19.2,57,21.5,59.4,24.5,59.4
	 M24.5,61.7c-4.2,0-7.5-3.3-7.5-7.5s3.3-7.5,7.5-7.5S32,50,32,54.2S28.5,61.7,24.5,61.7L24.5,61.7L24.5,61.7z"/>
<polyline fill="#C8C8C8" points="134.3,46.7 134.3,61.7 136.6,61.7 136.6,46.7 "/>
<polyline fill="#C8C8C8" points="143,53 128,53 128,55.2 143,55.2 "/>
<polyline fill="#C8C8C8" points="32,105.5 17,105.5 17,107.8 32,107.8 "/>
<polygon fill="#C8C8C8" points="127.1,106 134,112.9 143.8,103 142.1,101.5 134,109.6 128.8,104.5 127.1,106 "/>
</svg>
