<?xml version="1.0" encoding="utf-8"?>
<!-- Generator: Adobe Illustrator 18.1.0, SVG Export Plug-In . SVG Version: 6.00 Build 0)  -->
<svg version="1.1" id="Слой_1" xmlns="http://www.w3.org/2000/svg" xmlns:xlink="http://www.w3.org/1999/xlink" x="0px" y="0px"
	 viewBox="0 25 160 110.3" enable-background="new 0 25 160 110.3" xml:space="preserve">
<path fill="#C8C8C8" d="M18.9,93.3h-2.3V46.5c0-2.6,2-4.5,4.5-4.5h67.9v2.3H21.1c-1.2,0-2.3,1.1-2.3,2.3V93.3 M141.1,66.1h2.3v46.8
	c0,2.6-2,4.5-4.5,4.5H70.9v-2.3h67.9c1.2,0,2.3-1.1,2.3-2.3V66.1"/>
<path fill="#C8C8C8" d="M27.2,53.3c0.5,0,0.8-0.3,0.8-0.8c0-0.5-0.3-0.8-0.8-0.8s-0.8,0.3-0.8,0.8C26.4,53,26.7,53.3,27.2,53.3
	 M27.2,55.5c-1.7,0-3-1.4-3-3s1.4-3,3-3s3,1.4,3,3C30.2,54.2,28.8,55.5,27.2,55.5L27.2,55.5L27.2,55.5z"/>
<path fill="#C8C8C8" d="M34.7,53.3c0.5,0,0.8-0.3,0.8-0.8c0-0.5-0.3-0.8-0.8-0.8c-0.5,0-0.8,0.3-0.8,0.8C34,53,34.3,53.3,34.7,53.3
	 M34.7,55.5c-1.7,0-3-1.4-3-3s1.4-3,3-3c1.7,0,3,1.4,3,3C37.7,54.2,36.4,55.5,34.7,55.5L34.7,55.5L34.7,55.5z"/>
<path fill="#C8C8C8" d="M42.3,53.3c0.5,0,0.8-0.3,0.8-0.8c0-0.5-0.3-0.8-0.8-0.8c-0.5,0-0.8,0.3-0.8,0.8
	C41.5,53,41.8,53.3,42.3,53.3 M42.3,55.5c-1.7,0-3-1.4-3-3s1.4-3,3-3s3,1.4,3,3C45.3,54.2,43.9,55.5,42.3,55.5L42.3,55.5L42.3,55.5z
	"/>
<path fill="#C8C8C8" d="M154,62.3c1.2,0,2.3-1.1,2.3-2.3V31.4c0-1.2-1.1-2.3-2.3-2.3H95.1c-1.2,0-2.3,1.1-2.3,2.3v28.7
	c0,1.2,1.1,2.3,2.3,2.3H154 M154,64.6H95.1c-2.6,0-4.5-2-4.5-4.5V31.4c0-2.6,2-4.5,4.5-4.5H154c2.6,0,4.5,2,4.5,4.5v28.7
	C158.5,62.5,156.5,64.6,154,64.6L154,64.6L154,64.6z"/>
<polyline fill="#C8C8C8" points="105.7,39.7 105.7,37.4 143.4,37.4 143.4,39.7 105.7,39.7 "/>
<polyline fill="#C8C8C8" points="105.7,45.7 105.7,43.5 143.4,43.5 143.4,45.7 105.7,45.7 "/>
<polyline fill="#C8C8C8" points="105.7,51.8 105.7,49.5 143.4,49.5 143.4,51.8 105.7,51.8 "/>
<path fill="#C8C8C8" d="M64.9,130.3c1.2,0,2.3-1.1,2.3-2.3V99.3c0-1.2-1.1-2.3-2.3-2.3H6c-1.2,0-2.3,1.1-2.3,2.3V128
	c0,1.2,1.1,2.3,2.3,2.3H64.9 M64.9,132.5H6c-2.6,0-4.5-2-4.5-4.5V99.3c0-2.6,2-4.5,4.5-4.5h58.9c2.6,0,4.5,2,4.5,4.5V128
	C69.4,130.4,67.5,132.5,64.9,132.5L64.9,132.5L64.9,132.5z"/>
<path fill="#C8C8C8" d="M52.1,124.2v-10.6H32.5v10.6H52.1 M54.3,126.5H30.2v-15.1h24.2V126.5L54.3,126.5L54.3,126.5z"/>
<path fill="#C8C8C8" d="M28.5,121.2l0.2,2.3c-0.3,0-0.6,0-0.8,0c-6.2,0-11.3-5.1-11.3-11.3c0-6.2,5.1-11.3,11.3-11.3
	c5.4,0,10.1,3.9,11,9.1l-2.1,0.5c-0.9-4.2-4.5-7.2-8.9-7.2c-5,0-9.1,4.1-9.1,9.1c0,5,4.1,9.1,9.1,9.1
	C28.1,121.2,28.2,121.2,28.5,121.2L28.5,121.2L28.5,121.2"/>
<path fill="#C8C8C8" d="M110.5,65.8c-1.5,6.6-4.7,13-9.8,18.1l1.7,1.7c5.4-5.4,8.9-12.2,10.4-19.2L110.5,65.8L110.5,65.8L110.5,65.8
	z"/>
<polygon fill="#C8C8C8" points="105.8,87.8 98.4,87.8 98.4,80.5 96.2,80.5 96.2,90.1 105.8,90.1 105.8,87.8 "/>
<path fill="#C8C8C8" d="M49.5,93.4c1.5-6.6,4.7-13,9.8-18.1l-1.7-1.7c-5.4,5.4-8.9,12.2-10.4,19.2L49.5,93.4L49.5,93.4L49.5,93.4z"
	/>
<polygon fill="#C8C8C8" points="54.2,71.5 61.6,71.5 61.6,78.9 63.8,78.9 63.8,69.3 54.2,69.3 54.2,71.5 "/>
</svg>
