<svg xmlns="http://www.w3.org/2000/svg" xmlns:xlink="http://www.w3.org/1999/xlink" viewBox="0 16.3 160 127.3" enable-background="new 0 16.3 160 127.3"><path fill="#C8C8C8" d="M153.7 101.6c1.2 0 2.2-1 2.2-2.2v-58c0-1.2-1-2.2-2.2-2.2H73.4c-1.2 0-2.2 1-2.2 2.2v58c0 1.2 1 2.2 2.2 2.2h80.3m0 2.2H73.4c-2.5 0-4.5-1.9-4.5-4.5v-58c0-2.5 1.9-4.5 4.5-4.5h80.4c2.5 0 4.5 1.9 4.5 4.5v58c-.1 2.4-2 4.5-4.6 4.5z"/><defs><path id="a" d="M153.7 101.6c1.2 0 2.2-1 2.2-2.2v-58c0-1.2-1-2.2-2.2-2.2H73.4c-1.2 0-2.2 1-2.2 2.2v58c0 1.2 1 2.2 2.2 2.2h80.3m0 2.2H73.4c-2.5 0-4.5-1.9-4.5-4.5v-58c0-2.5 1.9-4.5 4.5-4.5h80.4c2.5 0 4.5 1.9 4.5 4.5v58c-.1 2.4-2 4.5-4.6 4.5z"/></defs><clipPath><use xlink:href="#a" overflow="visible"/></clipPath><path fill="#C8C8C8" d="M95.7 51c1.2 0 2.2-1 2.2-2.2s-1-2.2-2.2-2.2-2.2 1-2.2 2.2c0 1.1 1 2.2 2.2 2.2m0 2.2c-2.5 0-4.5-1.9-4.5-4.5s1.9-4.5 4.5-4.5c2.5 0 4.5 1.9 4.5 4.5 0 2.4-2 4.5-4.5 4.5z"/><defs><path id="b" d="M95.7 51c1.2 0 2.2-1 2.2-2.2s-1-2.2-2.2-2.2-2.2 1-2.2 2.2c0 1.1 1 2.2 2.2 2.2m0 2.2c-2.5 0-4.5-1.9-4.5-4.5s1.9-4.5 4.5-4.5c2.5 0 4.5 1.9 4.5 4.5 0 2.4-2 4.5-4.5 4.5z"/></defs><clipPath><use xlink:href="#b" overflow="visible"/></clipPath><path fill="#C8C8C8" d="M131.4 51c1.2 0 2.2-1 2.2-2.2s-1-2.2-2.2-2.2-2.2 1-2.2 2.2c0 1.1 1 2.2 2.2 2.2m0 2.2c-2.5 0-4.5-1.9-4.5-4.5s1.9-4.5 4.5-4.5 4.5 1.9 4.5 4.5c0 2.4-1.9 4.5-4.5 4.5z"/><defs><path id="c" d="M131.4 51c1.2 0 2.2-1 2.2-2.2s-1-2.2-2.2-2.2-2.2 1-2.2 2.2c0 1.1 1 2.2 2.2 2.2m0 2.2c-2.5 0-4.5-1.9-4.5-4.5s1.9-4.5 4.5-4.5 4.5 1.9 4.5 4.5c0 2.4-1.9 4.5-4.5 4.5z"/></defs><clipPath><use xlink:href="#c" overflow="visible"/></clipPath><path fill="#C8C8C8" d="M92 45.8h2.2v-8.9c0-10.7 8.6-19.3 19.3-19.3s19.3 8.6 19.3 19.3V46h2.2-4.5v-9.1c0-9.4-7.7-17.1-17.1-17.1s-17.1 7.7-17.1 17.1V46l-4.3-.2"/><defs><path id="d" d="M92 45.8h2.2v-8.9c0-10.7 8.6-19.3 19.3-19.3s19.3 8.6 19.3 19.3V46h2.2-4.5v-9.1c0-9.4-7.7-17.1-17.1-17.1s-17.1 7.7-17.1 17.1V46l-4.3-.2"/></defs><clipPath><use xlink:href="#d" overflow="visible"/></clipPath><path fill="#C8C8C8" d="M57 112c1.2 0 2.2-1 2.2-2.2V41.3c0-1.2-1-2.2-2.2-2.2H6.4c-1.2 0-2.2 1-2.2 2.2v68.5c0 1.2 1 2.2 2.2 2.2H57m0 2.2H6.4c-2.5 0-4.5-1.9-4.5-4.5V41.3c0-2.5 1.9-4.5 4.5-4.5H57c2.5 0 4.5 1.9 4.5 4.5v68.5c0 2.3-2 4.4-4.5 4.4z"/><defs><path id="e" d="M57 112c1.2 0 2.2-1 2.2-2.2V41.3c0-1.2-1-2.2-2.2-2.2H6.4c-1.2 0-2.2 1-2.2 2.2v68.5c0 1.2 1 2.2 2.2 2.2H57m0 2.2H6.4c-2.5 0-4.5-1.9-4.5-4.5V41.3c0-2.5 1.9-4.5 4.5-4.5H57c2.5 0 4.5 1.9 4.5 4.5v68.5c0 2.3-2 4.4-4.5 4.4z"/></defs><clipPath><use xlink:href="#e" overflow="visible"/></clipPath><path fill="#C8C8C8" d="M153.7 138.8c1.2 0 2.2-1 2.2-2.2v-20.8c0-1.2-1-2.2-2.2-2.2h-50.6c-1.2 0-2.2 1-2.2 2.2v20.8c0 1.2 1 2.2 2.2 2.2h50.6m0 2.2h-50.6c-2.5 0-4.5-1.9-4.5-4.5v-20.8c0-2.5 1.9-4.5 4.5-4.5h50.6c2.5 0 4.5 1.9 4.5 4.5v20.8c0 2.4-1.9 4.5-4.5 4.5z"/><defs><path id="f" d="M153.7 138.8c1.2 0 2.2-1 2.2-2.2v-20.8c0-1.2-1-2.2-2.2-2.2h-50.6c-1.2 0-2.2 1-2.2 2.2v20.8c0 1.2 1 2.2 2.2 2.2h50.6m0 2.2h-50.6c-2.5 0-4.5-1.9-4.5-4.5v-20.8c0-2.5 1.9-4.5 4.5-4.5h50.6c2.5 0 4.5 1.9 4.5 4.5v20.8c0 2.4-1.9 4.5-4.5 4.5z"/></defs><clipPath><use xlink:href="#f" overflow="visible"/></clipPath><path fill="#C8C8C8" d="M9.4 135.8v2.2H1.9v-2.2h7.5M4.2 138H1.9v-7.4h2.2l.1 7.4m-2.3-5.2v-2.2h7.4v2.2H1.9m2.3 5.2H1.9h2.3zm-2.3 0v-2.2 2.2zm0-5.2v-2.2h2.2-2.2v2.2z"/><defs><path id="g" d="M9.4 135.8v2.2H1.9v-2.2h7.5M4.2 138H1.9v-7.4h2.2l.1 7.4m-2.3-5.2v-2.2h7.4v2.2H1.9m2.3 5.2H1.9h2.3zm-2.3 0v-2.2 2.2zm0-5.2v-2.2h2.2-2.2v2.2z"/></defs><clipPath><use xlink:href="#g" overflow="visible"/></clipPath><path fill="#C8C8C8" d="M11.6 130.6H9.4v-6h2.2v6m-2.2-3.7v-2.2h29.8v2.2H9.4m0 0v-2.2h2.2-2.2v2.2z"/><defs><path id="h" d="M11.6 130.6H9.4v-6h2.2v6m-2.2-3.7v-2.2h29.8v2.2H9.4m0 0v-2.2h2.2-2.2v2.2z"/></defs><clipPath><use xlink:href="#h" overflow="visible"/></clipPath><path fill="#C8C8C8" d="M72 137.9l-1.6 1.6-1.5-1.5 1.6-1.6 1.5 1.5m-.9.1h-2.2v-7.4h2.2v7.4m0 0h-2.2 2.2zm-2.2 0l1.6-1.6-1.6 1.6z"/><defs><path id="i" d="M72 137.9l-1.6 1.6-1.5-1.5 1.6-1.6 1.5 1.5m-.9.1h-2.2v-7.4h2.2v7.4m0 0h-2.2 2.2zm-2.2 0l1.6-1.6-1.6 1.6z"/></defs><clipPath><use xlink:href="#i" overflow="visible"/></clipPath><path fill="#C8C8C8" d="M77.8 137.3c4.6 0 7.9-1.6 9.8-2.8-2.1-1.3-5.7-3.1-9.8-3.1H11.6v6l66.2-.1m0 2.2H9.4v-10.4h68.5c7.6 0 13.4 5.2 13.4 5.2s-4.7 5.2-13.5 5.2z"/></svg>