<svg xmlns="http://www.w3.org/2000/svg" viewBox="0 34.3 160 91.7" enable-background="new 0 34.3 160 91.7"><path fill="#C8C8C8" d="M154.2 122.2c1.1 0 2.1-1 2.1-2.1v-3.4H3.6v3.4c0 1.1 1 2.1 2.1 2.1h148.5m0 2H5.6c-2.3 0-4.1-1.8-4.1-4.1v-5.5h156.8v5.5c0 2.2-1.7 4.1-4.1 4.1zM17.3 114.6h-2.1V40.3c0-2.3 1.8-4.1 4.1-4.1h121.1c2.3 0 4.1 1.8 4.1 4.1v74.3h-2.1V40.3c0-1.1-1-2.1-2.1-2.1H19.4c-1.1 0-2.1 1-2.1 2.1v74.3"/><path fill="#C8C8C8" d="M24.9 46.5c.4 0 .7-.3.7-.7 0-.4-.3-.7-.7-.7-.4 0-.7.3-.7.7 0 .3.4.7.7.7m0 2.1c-1.5 0-2.8-1.2-2.8-2.8s1.2-2.8 2.8-2.8 2.8 1.2 2.8 2.8c0 1.5-1.3 2.8-2.8 2.8zM31.8 46.5c.4 0 .7-.3.7-.7 0-.4-.3-.7-.7-.7-.4 0-.7.3-.7.7 0 .3.4.7.7.7m0 2.1c-1.5 0-2.8-1.2-2.8-2.8s1.2-2.8 2.8-2.8c1.5 0 2.8 1.2 2.8 2.8-.1 1.5-1.3 2.8-2.8 2.8zM38.7 46.5c.4 0 .7-.3.7-.7 0-.4-.3-.7-.7-.7-.4 0-.7.3-.7.7 0 .3.4.7.7.7m0 2.1c-1.5 0-2.8-1.2-2.8-2.8s1.2-2.8 2.8-2.8 2.8 1.2 2.8 2.8c-.1 1.5-1.3 2.8-2.8 2.8zM129.5 43.7v-2h9.6v2h-9.6M129.5 46.5v-2.1h9.6v2.1h-9.6M129.5 49.3v-2.1h9.6v2.1h-9.6M59.3 68.5v-2.1h41.3v2.1H59.3M45.5 82.3v-2.1h68.8v2.1H45.5M45.5 89.1v-2h68.8v2H45.5"/></svg>