<svg xmlns="http://www.w3.org/2000/svg" viewBox="0 18 160 124" enable-background="new 0 18 160 124"><path fill="#C8C8C8" d="M65 122.5c1.2 0 2.3-1.1 2.3-2.3V91.7c0-1.2-1.1-2.3-2.3-2.3H6.5c-1.2 0-2.3 1.1-2.3 2.3v28.5c0 1.2 1.1 2.3 2.3 2.3H65m0 2.2H6.5c-2.6 0-4.5-2-4.5-4.5V91.7c0-2.6 2-4.5 4.5-4.5H65c2.6 0 4.5 2 4.5 4.5v28.5c0 2.6-2.1 4.5-4.5 4.5zM65 69.9c1.2 0 2.3-1.1 2.3-2.3V39.2c0-1.2-1.1-2.3-2.3-2.3H6.5c-1.2 0-2.3 1.1-2.3 2.3v28.5c0 1.2 1.1 2.3 2.3 2.3H65m0 2.2H6.5c-2.6 0-4.5-2-4.5-4.5V39.2c0-2.6 2-4.5 4.5-4.5H65c2.6 0 4.5 2 4.5 4.5v28.5c0 2.5-2.1 4.5-4.5 4.5zM153.5 122.5c1.2 0 2.3-1.1 2.3-2.3V91.7c0-1.2-1.1-2.3-2.3-2.3H95c-1.2 0-2.3 1.1-2.3 2.3v28.5c0 1.2 1.1 2.3 2.3 2.3h58.5m0 2.2H95c-2.6 0-4.5-2-4.5-4.5V91.7c0-2.6 2-4.5 4.5-4.5h58.5c2.6 0 4.5 2 4.5 4.5v28.5c0 2.6-2.1 4.5-4.5 4.5zM153.5 69.9c1.2 0 2.3-1.1 2.3-2.3V39.2c0-1.2-1.1-2.3-2.3-2.3H95c-1.2 0-2.3 1.1-2.3 2.3v28.5c0 1.2 1.1 2.3 2.3 2.3h58.5m0 2.2H95c-2.6 0-4.5-2-4.5-4.5V39.2c0-2.6 2-4.5 4.5-4.5h58.5c2.6 0 4.5 2 4.5 4.5v28.5c0 2.5-2.1 4.5-4.5 4.5zM71.6 72.9l15 15.1 1.7-1.5-15.1-15.1M86.6 71.4l-15 15.1 1.6 1.5 15.1-15.1M137.5 73.8l2.3-.2c.2 2 .3 3.9.3 6s-.2 4.1-.3 6l-2.3-.2c.2-2 .3-3.9.3-5.9 0-1.8-.2-3.7-.3-5.7m-115 11.8l-2.3.2c-.2-2-.3-3.9-.3-6s.2-4.1.3-6l2.3.2c-.2 2-.3 3.9-.3 5.9 0 1.8 0 3.7.3 5.7m22.8-52.1L44 31.7c10.1-7.5 22.5-12 36-12s26 4.5 36 12l-1.4 1.8c-10-7.5-22-11.6-34.6-11.6S55.4 26 45.3 33.5m69.4 92.4l1.4 1.8c-10.1 7.5-22.5 12-36 12s-26-4.5-36-12l1.4-1.8c10.1 7.5 22.1 11.6 34.7 11.6 12.4 0 24.4-4.1 34.5-11.6"/><path fill="#C8C8C8" d="M24.5 59.4c2.9 0 5.3-2.4 5.3-5.3s-2.4-5.3-5.3-5.3-5.3 2.4-5.3 5.3 2.3 5.3 5.3 5.3m0 2.3c-4.2 0-7.5-3.3-7.5-7.5s3.3-7.5 7.5-7.5S32 50 32 54.2s-3.5 7.5-7.5 7.5zM134.3 46.7v15h2.3v-15M143 53h-15v2.2h15M32 105.5H17v2.3h15"/><path fill="#C8C8C8" d="M127.1 106l6.9 6.9 9.8-9.9-1.7-1.5-8.1 8.1-5.2-5.1-1.7 1.5z"/></svg>