<svg xmlns="http://www.w3.org/2000/svg" viewBox="0 25 160 110.3" enable-background="new 0 25 160 110.3"><path fill="#C8C8C8" d="M18.9 93.3h-2.3V46.5c0-2.6 2-4.5 4.5-4.5H89v2.3H21.1c-1.2 0-2.3 1.1-2.3 2.3v46.7m122.3-27.2h2.3v46.8c0 2.6-2 4.5-4.5 4.5h-68v-2.3h67.9c1.2 0 2.3-1.1 2.3-2.3V66.1"/><path fill="#C8C8C8" d="M27.2 53.3c.5 0 .8-.3.8-.8s-.3-.8-.8-.8-.8.3-.8.8.3.8.8.8m0 2.2c-1.7 0-3-1.4-3-3s1.4-3 3-3 3 1.4 3 3c0 1.7-1.4 3-3 3zM34.7 53.3c.5 0 .8-.3.8-.8s-.3-.8-.8-.8-.8.3-.8.8c.1.5.4.8.8.8m0 2.2c-1.7 0-3-1.4-3-3s1.4-3 3-3c1.7 0 3 1.4 3 3 0 1.7-1.3 3-3 3zM42.3 53.3c.5 0 .8-.3.8-.8s-.3-.8-.8-.8-.8.3-.8.8.3.8.8.8m0 2.2c-1.7 0-3-1.4-3-3s1.4-3 3-3 3 1.4 3 3c0 1.7-1.4 3-3 3zM154 62.3c1.2 0 2.3-1.1 2.3-2.3V31.4c0-1.2-1.1-2.3-2.3-2.3H95.1c-1.2 0-2.3 1.1-2.3 2.3v28.7c0 1.2 1.1 2.3 2.3 2.3H154m0 2.2H95.1c-2.6 0-4.5-2-4.5-4.5V31.4c0-2.6 2-4.5 4.5-4.5H154c2.6 0 4.5 2 4.5 4.5v28.7c0 2.4-2 4.5-4.5 4.5zM105.7 39.7v-2.3h37.7v2.3h-37.7M105.7 45.7v-2.2h37.7v2.2h-37.7M105.7 51.8v-2.3h37.7v2.3h-37.7"/><path fill="#C8C8C8" d="M64.9 130.3c1.2 0 2.3-1.1 2.3-2.3V99.3c0-1.2-1.1-2.3-2.3-2.3H6c-1.2 0-2.3 1.1-2.3 2.3V128c0 1.2 1.1 2.3 2.3 2.3h58.9m0 2.2H6c-2.6 0-4.5-2-4.5-4.5V99.3c0-2.6 2-4.5 4.5-4.5h58.9c2.6 0 4.5 2 4.5 4.5V128c0 2.4-1.9 4.5-4.5 4.5zM52.1 124.2v-10.6H32.5v10.6h19.6m2.2 2.3H30.2v-15.1h24.2v15.1h-.1zM28.5 121.2l.2 2.3h-.8c-6.2 0-11.3-5.1-11.3-11.3 0-6.2 5.1-11.3 11.3-11.3 5.4 0 10.1 3.9 11 9.1l-2.1.5c-.9-4.2-4.5-7.2-8.9-7.2-5 0-9.1 4.1-9.1 9.1s4.1 9.1 9.1 9.1c.2-.3.3-.3.6-.3"/><path fill="#C8C8C8" d="M110.5 65.8c-1.5 6.6-4.7 13-9.8 18.1l1.7 1.7c5.4-5.4 8.9-12.2 10.4-19.2l-2.3-.6zM105.8 87.8h-7.4v-7.3h-2.2v9.6h9.6v-2.3zM49.5 93.4c1.5-6.6 4.7-13 9.8-18.1l-1.7-1.7c-5.4 5.4-8.9 12.2-10.4 19.2l2.3.6zM54.2 71.5h7.4v7.4h2.2v-9.6h-9.6v2.2z"/></svg>