<svg xmlns="http://www.w3.org/2000/svg" viewBox="0 0 35.2 73.6" enable-background="new 0 0 35.2 73.6"><g><path d="M4.7 39.4h8.7v-6.9h1.9v17h-1.9v-8.3H4.7v8.3H2.8v-17h1.9v6.9zM31.2 34.3h-7.9v5.1H31v1.8h-7.7v6.6h7.9v1.8h-9.8v-17h9.8v1.7zM13 67.5H5.8l-2 4.8H1.6l7.8-17.8L17 72.3h-2l-2-4.8zm-.7-1.8l-2.9-6.8-2.9 6.8h5.8zM21.3 55.3h3.5c1.7 0 4.1.2 6.3 2 1.6 1.3 2.9 3.5 2.9 6.5 0 3.6-1.8 5.5-3 6.5-1.6 1.3-3.2 2-6.2 2h-3.4v-17zm1.9 15.2h1.7c1.4 0 3.2-.2 4.9-1.5 1.3-1.1 2.3-2.8 2.3-5.2 0-4.1-2.9-6.7-7.2-6.7h-1.7v13.4zM34.6.4H.6l.9 2.1h11.7L18 14.1l-8.2 8.3.9 2.1L34.6.4zm-19.2 2h14.1l-9.9 10.1-4.2-10.1z"/></g></svg>