<?xml version="1.0" encoding="utf-8"?>
<!-- Generator: Adobe Illustrator 18.1.0, SVG Export Plug-In . SVG Version: 6.00 Build 0)  -->
<svg version="1.1" xmlns="http://www.w3.org/2000/svg" xmlns:xlink="http://www.w3.org/1999/xlink" x="0px" y="0px"
	 viewBox="0 0 113.4 141.7" enable-background="new 0 0 113.4 141.7" xml:space="preserve">
<g id="Background" display="none">
	<rect x="0" y="0" display="inline" fill="#FAF399" width="113.4" height="141.7"/>
</g>
<g id="Layer_1">
	<g>
		<path d="M43.8,75.7h8.7v-6.9h1.9v17h-1.9v-8.3h-8.7v8.3h-1.9v-17h1.9V75.7z"/>
	</g>
	<g>
		<path d="M70.2,70.6h-7.9v5.1H70v1.8h-7.7v6.6h7.9v1.8h-9.8v-17h9.8V70.6z"/>
	</g>
	<g>
		<path d="M52.1,103.8h-7.2l-2,4.8h-2.1l7.8-17.8l7.6,17.8H54L52.1,103.8z M51.3,102.1l-2.9-6.8l-2.9,6.8H51.3z"/>
	</g>
	<g>
		<path d="M60.4,91.6h3.5c1.7,0,4.1,0.2,6.3,2c1.6,1.3,2.9,3.5,2.9,6.5c0,3.6-1.8,5.5-3,6.5c-1.6,1.3-3.2,2-6.2,2h-3.4V91.6z
			 M62.3,106.9h1.7c1.4,0,3.2-0.2,4.9-1.5c1.3-1.1,2.3-2.8,2.3-5.2c0-4.1-2.9-6.7-7.2-6.7h-1.7V106.9z"/>
	</g>
	<path d="M73.7,36.7L73.7,36.7L73.7,36.7L73.7,36.7L73.7,36.7l-34,0l0.9,2.1l11.7,0l4.8,11.6l-8.2,8.3l0.9,2.1L73.7,36.7z
		 M54.5,38.7l14.1,0l-9.9,10.1L54.5,38.7z"/>
</g>
<g id="Guides">
</g>
</svg>
