<?xml version="1.0" encoding="utf-8"?>
<!-- Generator: Adobe Illustrator 18.1.0, SVG Export Plug-In . SVG Version: 6.00 Build 0)  -->
<svg version="1.1" xmlns="http://www.w3.org/2000/svg" xmlns:xlink="http://www.w3.org/1999/xlink" x="0px" y="0px"
	 viewBox="0 0 35.2 73.6" enable-background="new 0 0 35.2 73.6" xml:space="preserve">
<g id="Background" display="none">
	<rect x="-39" y="-36.4" display="inline" fill="#FAF399" width="113.4" height="141.7"/>
</g>
<g id="Layer_1">
	<g>
		<path d="M4.7,39.4h8.7v-6.9h1.9v17h-1.9v-8.3H4.7v8.3H2.8v-17h1.9V39.4z"/>
	</g>
	<g>
		<path d="M31.2,34.3h-7.9v5.1H31v1.8h-7.7v6.6h7.9v1.8h-9.8v-17h9.8V34.3z"/>
	</g>
	<g>
		<path d="M13,67.5H5.8l-2,4.8H1.6l7.8-17.8l7.6,17.8H15L13,67.5z M12.3,65.7l-2.9-6.8l-2.9,6.8H12.3z"/>
	</g>
	<g>
		<path d="M21.3,55.3h3.5c1.7,0,4.1,0.2,6.3,2c1.6,1.3,2.9,3.5,2.9,6.5c0,3.6-1.8,5.5-3,6.5c-1.6,1.3-3.2,2-6.2,2h-3.4V55.3z
			 M23.2,70.5h1.7c1.4,0,3.2-0.2,4.9-1.5c1.3-1.1,2.3-2.8,2.3-5.2c0-4.1-2.9-6.7-7.2-6.7h-1.7V70.5z"/>
	</g>
	<path d="M34.6,0.4L34.6,0.4L34.6,0.4L34.6,0.4L34.6,0.4l-34,0l0.9,2.1l11.7,0l4.8,11.6l-8.2,8.3l0.9,2.1L34.6,0.4z M15.4,2.4
		l14.1,0l-9.9,10.1L15.4,2.4z"/>
</g>
<g id="Guides" display="none">
</g>
</svg>
